<svg width="260" height="260" viewBox="0 0 260 260" fill="none" xmlns="http://www.w3.org/2000/svg" >
<path d="M80.8745 107.845L129.172 184.928C131.575 188.764 137.138 188.838 139.642 185.067L224.073 57.9003L189.511 37.9438L145.066 105.054C143.912 106.797 141.962 107.845 139.872 107.845H84.3277C82.1837 107.845 80.1906 106.742 79.051 104.927L80.8745 107.845Z" fill="#FF23AC"/>
<path d="M39.4426 201.295L61.3434 96.8284C62.4948 91.3364 69.7505 90.0463 72.7245 94.8047M224.936 56.5999L224.073 57.9003M72.7245 94.8047L79.0443 104.916L79.051 104.927M72.7245 94.8047L79.051 104.927M190.373 36.6425L189.511 37.9438M189.511 37.9438L135.693 6.86841C132.903 5.25739 129.466 5.25738 126.676 6.8684L26.6673 64.6149C23.8778 66.2256 22.1593 69.202 22.1592 72.4231L22.1534 187.906C22.1533 191.128 23.8721 194.105 26.6623 195.716L126.676 253.452C129.466 255.063 132.903 255.063 135.693 253.452L235.707 195.716C238.497 194.105 240.216 191.128 240.216 187.906L240.21 72.4231C240.21 69.202 238.491 66.2256 235.702 64.6149L224.073 57.9003M189.511 37.9438L145.066 105.054C143.912 106.797 141.962 107.845 139.872 107.845H84.3277C82.1837 107.845 80.1906 106.742 79.051 104.927M189.511 37.9438L224.073 57.9003M79.051 104.927L80.8745 107.845L129.172 184.928C131.575 188.764 137.138 188.838 139.642 185.067L224.073 57.9003" stroke="white" stroke-width="10"/>
</svg>
