<?xml version="1.0" standalone="no"?>
<!DOCTYPE svg PUBLIC "-//W3C//DTD SVG 20010904//EN"
 "http://www.w3.org/TR/2001/REC-SVG-20010904/DTD/svg10.dtd">
<svg version="1.0" xmlns="http://www.w3.org/2000/svg"
 width="700.000000pt" height="700.000000pt" viewBox="0 0 700.000000 700.000000"
 preserveAspectRatio="xMidYMid meet">
<metadata>
Created by potrace 1.14, written by Peter Selinger 2001-2017
</metadata>
<g transform="translate(0.000000,700.000000) scale(0.100000,-0.100000)"
fill="#000000" stroke="none">
<path d="M3430 6967 c-43 -12 -139 -65 -610 -337 -107 -62 -208 -121 -225
-130 -108 -62 -633 -366 -795 -460 -107 -62 -210 -121 -228 -131 -93 -54 -301
-174 -327 -190 -16 -11 -36 -22 -44 -26 -8 -3 -64 -35 -125 -71 -61 -35 -187
-107 -280 -161 -208 -119 -244 -150 -293 -249 l-38 -76 0 -1640 0 -1641 32
-68 c41 -87 95 -138 219 -210 54 -32 106 -62 114 -67 13 -8 263 -153 325 -188
11 -6 162 -93 335 -193 173 -100 335 -193 360 -207 25 -13 50 -28 55 -32 6 -4
30 -19 55 -32 25 -14 74 -43 110 -63 36 -21 81 -47 102 -59 20 -12 62 -36 95
-55 32 -19 74 -43 93 -54 19 -10 76 -43 125 -72 50 -29 110 -63 135 -77 25
-14 185 -106 355 -205 402 -233 411 -238 474 -253 108 -26 210 0 368 94 44 27
247 144 403 234 242 139 440 254 610 352 102 59 352 203 555 320 204 117 438
253 522 301 83 49 167 97 185 107 357 203 407 238 455 320 57 97 54 -1 54
1737 1 1155 -3 1614 -11 1650 -15 67 -53 134 -103 183 -39 38 -267 173 -1057
626 -151 87 -287 167 -302 177 -15 10 -30 19 -33 19 -3 0 -76 41 -163 92 -86
50 -341 198 -567 328 -225 130 -455 263 -510 295 -169 98 -218 118 -304 122
-42 1 -96 -3 -121 -10z"/>
</g>
</svg>
